<svg width="35" height="40" viewBox="0 0 35 40" fill="none" xmlns="http://www.w3.org/2000/svg">
<path fill-rule="evenodd" clip-rule="evenodd" d="M33.4211 31.138C32.8475 32.4733 32.1391 33.7465 31.3071 34.938C30.5239 36.1323 29.6107 37.2361 28.584 38.229C27.6508 39.1618 26.4023 39.7116 25.084 39.77C23.9673 39.721 22.8704 39.4589 21.8521 38.998C20.7526 38.5191 19.5709 38.2579 18.372 38.229C17.141 38.2533 15.9263 38.5143 14.794 38.998C13.8159 39.4395 12.7708 39.7142 11.7021 39.811C10.3433 39.7946 9.05047 39.223 8.12408 38.229C7.05279 37.201 6.09784 36.0585 5.27606 34.822C3.99273 32.9815 2.97882 30.9672 2.26507 28.84C1.45062 26.55 1.02313 24.1404 1.00006 21.71C0.935604 19.3262 1.52716 16.9705 2.71014 14.9C3.57171 13.4044 4.80487 12.1564 6.2901 11.277C7.75421 10.4009 9.42486 9.9295 11.131 9.91101C12.4194 9.9873 13.6854 10.2819 14.8751 10.782C15.8233 11.1996 16.8216 11.493 17.845 11.655C18.9734 11.4196 20.0763 11.075 21.1381 10.626C22.5574 10.049 24.0827 9.77802 25.6141 9.83099C28.5706 9.90753 31.3228 11.3567 33.059 13.751C30.2878 15.2238 28.5872 18.1367 28.667 21.274C28.6374 23.6525 29.6297 25.9294 31.392 27.527C32.1829 28.2837 33.1059 28.889 34.115 29.313C33.8964 29.9464 33.6651 30.5537 33.4211 31.135V31.138ZM25.835 1.28699C25.8089 3.32031 25.0449 5.2749 23.6851 6.78693C21.9571 8.80701 19.867 9.974 17.601 9.78699C17.5706 9.53986 17.5552 9.29102 17.5551 9.04199C17.6237 6.97534 18.4334 5.00232 19.836 3.48303C20.6144 2.6106 21.5593 1.9024 22.615 1.40002C23.6036 0.889587 24.6847 0.583496 25.794 0.5C25.8222 0.761047 25.8359 1.02344 25.835 1.28601V1.28699Z" fill="white"/>
</svg>
