<svg width="33" height="24" viewBox="0 0 33 24" fill="none" xmlns="http://www.w3.org/2000/svg">
<g opacity="0.5">
<path fill-rule="evenodd" clip-rule="evenodd" d="M16.5 24.0001C13.8369 24.0184 11.2111 23.3741 8.85901 22.1251C6.91998 21.0712 5.18884 19.6735 3.75 18.0001C2.18512 16.215 0.918823 14.189 0 12.0001C0.920959 9.81239 2.18707 7.78663 3.75 6.00014C5.18884 4.32673 6.91998 2.92903 8.85901 1.87514C11.2111 0.626173 13.8369 -0.0181751 16.5 0.00013548C19.1631 -0.0181751 21.7889 0.626173 24.141 1.87514C26.08 2.92903 27.8112 4.32673 29.25 6.00014C30.8149 7.78523 32.0812 9.81129 33 12.0001C32.079 14.1879 30.8129 16.2136 29.25 18.0001C27.8112 19.6735 26.08 21.0712 24.141 22.1251C21.7889 23.3741 19.1631 24.0184 16.5 24.0001ZM16.5 3.00014C8.67297 3.00014 4.65302 9.30012 3.28699 12.0051C4.638 14.7091 8.63098 21.0001 16.5 21.0001C24.326 21.0001 28.348 14.7001 29.714 11.9942C28.364 9.29115 24.373 3.00014 16.5 3.00014ZM16.5 18.0001C13.1863 18.0001 10.5 15.3139 10.5 12.0001C10.5 8.68641 13.1863 6.00014 16.5 6.00014C19.8137 6.00014 22.5 8.68641 22.5 12.0001C22.4968 15.3123 19.8125 17.9968 16.5001 18.0001H16.5ZM16.5 9.00014C14.8431 9.00014 13.5 10.3433 13.5 12.0001C13.5 13.657 14.8431 15.0001 16.5 15.0001C18.1569 15.0001 19.5 13.657 19.5 12.0001C19.5 10.3433 18.1569 9.00014 16.5 9.00014Z" fill="white"/>
</g>
</svg>
