<svg width="36" height="35" viewBox="0 0 36 35" fill="none" xmlns="http://www.w3.org/2000/svg">
<path fill-rule="evenodd" clip-rule="evenodd" d="M17.839 0.5C8.76813 0.493164 1.22708 7.48309 0.546783 16.5284C-0.133545 25.5737 6.27716 33.613 15.247 34.963L15.247 22.434H10.957V17.876H15.248V14.843C15.248 9.82098 17.694 7.61798 21.868 7.61798C23.057 7.60205 24.2456 7.67419 25.424 7.83398L25.424 11.813H22.577C20.806 11.813 20.187 13.492 20.187 15.386V17.877H25.379L24.679 22.434H20.186V35C29.2155 33.7645 35.7451 25.7464 35.1266 16.6538C34.508 7.56116 26.9526 0.501282 17.839 0.5H17.839Z" fill="#4267B2"/>
</svg>
