<svg width="34" height="35" viewBox="0 0 34 35" fill="none" xmlns="http://www.w3.org/2000/svg">
<path fill-rule="evenodd" clip-rule="evenodd" d="M33.52 17.9908C33.5209 16.8284 33.4207 15.666 33.2203 14.5189L17.098 14.5168V21.1009H26.333C25.9514 23.2282 24.7166 25.1069 22.9149 26.3009L22.915 30.5729H28.425C31.8281 27.2894 33.6797 22.717 33.52 17.9908Z" fill="#4285F4"/>
<path fill-rule="evenodd" clip-rule="evenodd" d="M17.098 34.696C21.2634 34.8129 25.3166 33.3365 28.431 30.568L22.919 26.297C20.2308 28.0165 16.9006 28.4025 13.8902 27.3436C10.8799 26.2847 8.52478 23.8988 7.505 20.875H1.81903V25.275C4.72192 31.0508 10.6337 34.696 17.098 34.696Z" fill="#34A853"/>
<path fill-rule="evenodd" clip-rule="evenodd" d="M7.49799 20.8748C6.78186 18.7516 6.78186 16.452 7.49799 14.3288V9.9248H1.81897C-0.605957 14.7556 -0.605957 20.4481 1.81897 25.2788L7.49799 20.8748Z" fill="#FBBC04"/>
<path fill-rule="evenodd" clip-rule="evenodd" d="M17.098 7.26697C19.5359 7.22754 21.8917 8.14807 23.657 9.82996L28.538 4.94897C25.4423 2.04431 21.3427 0.450378 17.098 0.500916C10.6329 0.499878 4.72028 4.1463 1.81903 9.92395L7.49799 14.3239C8.85443 10.1564 12.7156 7.31647 17.098 7.26294V7.26697Z" fill="#EA4335"/>
</svg>
