<svg width="31" height="31" viewBox="0 0 31 31" fill="none" xmlns="http://www.w3.org/2000/svg">
<g opacity="0.5">
<path fill-rule="evenodd" clip-rule="evenodd" d="M15.3039 22.5119C13.3082 22.5336 11.388 21.7503 9.97675 20.3391C8.5655 18.9278 7.7823 17.0076 7.8039 15.0119C7.78254 13.0163 8.56587 11.0962 9.977 9.68504C11.3883 8.27387 13.3083 7.49055 15.3039 7.51191C17.2996 7.49027 19.2198 8.27351 20.6311 9.68473C22.0423 11.096 22.8255 13.0162 22.8039 15.0119C22.8255 17.0076 22.0423 18.9279 20.6311 20.3391C19.2198 21.7503 17.2995 22.5336 15.3039 22.5119ZM15.3039 10.5119C14.1021 10.4843 12.9415 10.9495 12.0915 11.7995C11.2415 12.6495 10.7763 13.8102 10.8039 15.0119C10.7763 16.2136 11.2415 17.3744 12.0915 18.2243C12.9415 19.0743 14.1021 19.5396 15.3039 19.5119C16.5057 19.5396 17.6663 19.0743 18.5163 18.2243C19.3663 17.3744 19.8315 16.2136 19.8039 15.0119C19.8315 13.8102 19.3663 12.6495 18.5163 11.7995C17.6663 10.9495 16.5057 10.4843 15.3039 10.5119Z" fill="white"/>
<path fill-rule="evenodd" clip-rule="evenodd" d="M22.7321 30.31H15.155C6.78516 30.31 0 23.5249 0 15.155C0 6.78513 6.78516 0 15.155 0C23.5249 0 30.3101 6.78513 30.3101 15.155V17.428C30.3109 19.323 29.3003 21.0749 27.6588 22.023C26.0175 22.971 23.9949 22.9711 22.3534 22.0232C20.712 21.0752 19.7012 19.3233 19.702 17.4278V15.155H22.733V17.428C22.7336 18.6828 23.7511 19.6997 25.006 19.6998C26.2609 19.6998 27.2783 18.6829 27.2791 17.428V15.155C27.2791 8.45911 21.851 3.03101 15.155 3.03101C8.45911 3.03101 3.03101 8.45911 3.03101 15.155C3.03101 21.8509 8.45911 27.279 15.155 27.279H22.7321V30.31Z" fill="white"/>
</g>
</svg>
