<svg width="589" height="55" viewBox="0 0 589 55" fill="none" xmlns="http://www.w3.org/2000/svg">
<path d="M27.5 0L33.6741 19.002H53.6541L37.49 30.7459L43.6641 49.748L27.5 38.0041L11.3359 49.748L17.51 30.7459L1.34595 19.002H21.3259L27.5 0Z" fill="#C4C4C4"/>
<path d="M326 0L332.062 19.002H351.679L335.808 30.7459L341.87 49.748L326 38.0041L310.13 49.748L316.192 30.7459L300.321 19.002H319.938L326 0Z" fill="#C4C4C4"/>
<path d="M562 0L568.062 19.002H587.679L571.808 30.7459L577.87 49.748L562 38.0041L546.13 49.748L552.192 30.7459L536.321 19.002H555.938L562 0Z" fill="#C4C4C4"/>
<path d="M503 0L509.062 19.002H528.679L512.808 30.7459L518.87 49.748L503 38.0041L487.13 49.748L493.192 30.7459L477.321 19.002H496.938L503 0Z" fill="#C4C4C4"/>
<path d="M385 0L391.062 19.002H410.679L394.808 30.7459L400.87 49.748L385 38.0041L369.13 49.748L375.192 30.7459L359.321 19.002H378.938L385 0Z" fill="#C4C4C4"/>
<path d="M444 0L450.062 19.002H469.679L453.808 30.7459L459.87 49.748L444 38.0041L428.13 49.748L434.192 30.7459L418.321 19.002H437.938L444 0Z" fill="#C4C4C4"/>
<path d="M147 0L153.062 19.002H172.679L156.808 30.7459L162.87 49.748L147 38.0041L131.13 49.748L137.192 30.7459L121.321 19.002H140.938L147 0Z" fill="#C4C4C4"/>
<path d="M206.5 0L212.674 19.002H232.654L216.49 30.7459L222.664 49.748L206.5 38.0041L190.336 49.748L196.51 30.7459L180.346 19.002H200.326L206.5 0Z" fill="#C4C4C4"/>
<path d="M266.5 0L272.674 19.002H292.654L276.49 30.7459L282.664 49.748L266.5 38.0041L250.336 49.748L256.51 30.7459L240.346 19.002H260.326L266.5 0Z" fill="#C4C4C4"/>
<path d="M87.5 0L93.6741 19.002H113.654L97.49 30.7459L103.664 49.748L87.5 38.0041L71.3359 49.748L77.51 30.7459L61.3459 19.002H81.3259L87.5 0Z" fill="#C4C4C4"/>
</svg>
