<svg width="27" height="32" viewBox="0 0 27 32" fill="none" xmlns="http://www.w3.org/2000/svg">
<g opacity="0.5">
<path fill-rule="evenodd" clip-rule="evenodd" d="M13.452 15.5997C15.3935 15.6265 17.2604 14.8529 18.614 13.4607C20.0059 12.1074 20.7795 10.2409 20.753 8.29972C20.7797 6.35825 20.006 4.49137 18.614 3.13773C15.7632 0.287422 11.1417 0.287422 8.29101 3.13773C6.89886 4.49128 6.12524 6.35822 6.15198 8.29972C6.12524 10.2413 6.89886 12.1082 8.29101 13.4618C9.64465 14.8531 11.511 15.6262 13.452 15.5997ZM9.547 4.39472C10.5826 3.35862 11.9875 2.77653 13.4525 2.77653C14.9174 2.77653 16.3223 3.35862 17.358 4.39472C18.4178 5.41416 19.0042 6.82951 18.976 8.29972C19.0045 9.77027 18.418 11.186 17.358 12.2057C16.3224 13.2418 14.9175 13.824 13.4525 13.824C11.9875 13.824 10.5826 13.2418 9.547 12.2057C8.48651 11.1863 7.89966 9.77048 7.92798 8.29972C7.89966 6.82899 8.48651 5.41315 9.547 4.39375V4.39472Z" fill="white"/>
<path d="M18.614 13.4607L18.3699 13.2097L18.3631 13.2167L18.614 13.4607ZM20.753 8.29972L20.4029 8.29491L20.403 8.3045L20.753 8.29972ZM18.614 3.13773L18.3665 3.38526L18.37 3.38866L18.614 3.13773ZM8.29101 3.13773L8.53502 3.3887L8.53848 3.38524L8.29101 3.13773ZM6.15198 8.29972L6.50208 8.30454L6.50194 8.2949L6.15198 8.29972ZM8.29101 13.4618L8.54197 13.2176L8.535 13.2108L8.29101 13.4618ZM9.547 4.39472H9.197V5.23996L9.79454 4.64215L9.547 4.39472ZM17.358 4.39472L17.1104 4.64221L17.1154 4.64696L17.358 4.39472ZM18.976 8.29972L18.6258 8.293L18.6261 8.3065L18.976 8.29972ZM17.358 12.2057L17.1153 11.9534L17.1105 11.9583L17.358 12.2057ZM9.547 12.2057L9.79459 11.9582L9.78955 11.9534L9.547 12.2057ZM7.92798 8.29972L8.27817 8.30646L8.27791 8.29298L7.92798 8.29972ZM9.547 4.39375H9.897V3.57182L9.30444 4.14142L9.547 4.39375ZM13.4472 15.9497C15.4849 15.9778 17.4443 15.1658 18.865 13.7047L18.3631 13.2167C17.0766 14.5399 15.3021 15.2752 13.4568 15.2498L13.4472 15.9497ZM18.858 13.7117C20.3188 12.2913 21.1308 10.3323 21.103 8.29494L20.403 8.3045C20.4282 10.1495 19.6929 11.9235 18.37 13.2098L18.858 13.7117ZM21.103 8.30453C21.1309 6.26687 20.319 4.3075 18.858 2.88681L18.37 3.38866C19.6931 4.67524 20.4284 6.44964 20.403 8.29491L21.103 8.30453ZM18.8615 2.89023C15.874 -0.0967406 11.0309 -0.0967444 8.04354 2.89023L8.53848 3.38524C11.2525 0.671589 15.6525 0.671585 18.3665 3.38524L18.8615 2.89023ZM8.04703 2.88679C6.5859 4.3074 5.77395 6.26685 5.80201 8.30454L6.50194 8.2949C6.47653 6.4496 7.21183 4.67516 8.535 3.38868L8.04703 2.88679ZM5.80201 8.2949C5.77395 10.3327 6.5859 12.2921 8.04703 13.7127L8.535 13.2108C7.21183 11.9243 6.47653 10.1499 6.50194 8.30454L5.80201 8.2949ZM8.04016 13.7058C9.46084 15.166 11.4197 15.9775 13.4568 15.9497L13.4472 15.2498C11.6024 15.2749 9.82846 14.5401 8.54187 13.2177L8.04016 13.7058ZM9.79454 4.64215C10.7645 3.67173 12.0804 3.12653 13.4525 3.12653V2.42653C11.8947 2.42653 10.4007 3.04551 9.29945 4.14729L9.79454 4.64215ZM13.4525 3.12653C14.8246 3.12653 16.1404 3.67172 17.1105 4.64216L17.6056 4.14728C16.5042 3.04552 15.0103 2.42653 13.4525 2.42653V3.12653ZM17.1154 4.64696C18.1049 5.5988 18.6524 6.92029 18.6261 8.29301L19.3259 8.30643C19.356 6.73872 18.7307 5.22953 17.6007 4.14248L17.1154 4.64696ZM18.6261 8.3065C18.6527 9.67953 18.1051 11.0014 17.1154 11.9535L17.6007 12.458C18.731 11.3707 19.3563 9.86102 19.3259 8.29294L18.6261 8.3065ZM17.1105 11.9583C16.1405 12.9287 14.8246 13.474 13.4525 13.474V14.174C15.0103 14.174 16.5043 13.5549 17.6056 12.4532L17.1105 11.9583ZM13.4525 13.474C12.0804 13.474 10.7645 12.9287 9.79454 11.9583L9.29945 12.4532C10.4007 13.5549 11.8947 14.174 13.4525 14.174V13.474ZM9.78955 11.9534C8.7994 11.0016 8.25147 9.67968 8.27791 8.30646L7.57804 8.29298C7.54784 9.86129 8.17362 11.371 9.30444 12.4581L9.78955 11.9534ZM8.27791 8.29298C8.25147 6.91979 8.7994 5.59787 9.78955 4.64607L9.30444 4.14142C8.17362 5.22844 7.54784 6.73818 7.57804 8.30646L8.27791 8.29298ZM9.197 4.39375V4.39472H9.897V4.39375H9.197Z" fill="white"/>
<path fill-rule="evenodd" clip-rule="evenodd" d="M26.226 24.3068C26.1783 23.6645 26.0962 23.0252 25.98 22.3917C25.8654 21.7401 25.7081 21.0968 25.509 20.4658C25.308 19.84 25.0425 19.2368 24.717 18.6658C24.3969 18.0919 23.9951 17.5678 23.524 17.1098C23.0275 16.6432 22.445 16.2774 21.809 16.0328C21.1112 15.7624 20.3684 15.6267 19.62 15.6328C19.1837 15.6786 18.7707 15.8526 18.433 16.1328C18.0771 16.3648 17.661 16.6328 17.1971 16.9328C16.6946 17.2312 16.1572 17.4664 15.597 17.6328C14.3271 18.0543 12.955 18.0543 11.685 17.6328C11.1248 17.4666 10.5873 17.2314 10.0851 16.9328C9.62503 16.6388 9.20901 16.3708 8.84805 16.1328C8.51077 15.8527 8.09805 15.6787 7.66202 15.6328C6.9136 15.6265 6.17087 15.7622 5.47305 16.0328C4.837 16.2773 4.25455 16.6431 3.75802 17.1098C3.28708 17.5675 2.88516 18.0913 2.56503 18.6648C2.23965 19.2359 1.97427 19.8391 1.77304 20.4647C1.57413 21.0955 1.41678 21.7385 1.30203 22.3898C1.18564 23.0236 1.10348 23.6631 1.05606 24.3057C1.01602 24.8848 0.995024 25.4868 0.995024 26.0958C0.93173 27.5195 1.475 28.9033 2.49002 29.9038C3.53903 30.8604 4.92361 31.3636 6.34201 31.3038H20.941C22.3595 31.3635 23.744 30.8603 24.793 29.9038C25.8101 28.9043 26.3553 27.5203 26.293 26.0958C26.293 25.4848 26.272 24.8828 26.232 24.3058L26.226 24.3068ZM23.568 28.6178C22.8491 29.2605 21.9037 29.5902 20.941 29.5338H6.34701C5.38449 29.5905 4.43905 29.2612 3.72 28.6187C3.06027 27.9515 2.71713 27.0341 2.77701 26.0977C2.77701 25.5298 2.79605 24.9688 2.83304 24.4308C2.87601 23.8522 2.9501 23.2764 3.05502 22.7058C3.15567 22.1306 3.29397 21.5628 3.46902 21.0058C3.63296 20.4983 3.84872 20.009 4.113 19.5457C4.3483 19.1221 4.64371 18.7347 4.99002 18.3957C5.32089 18.0878 5.7084 17.847 6.13101 17.6868C6.57828 17.5155 7.05215 17.4241 7.53103 17.4168C7.59305 17.4498 7.70401 17.5167 7.88302 17.6298C8.24801 17.8678 8.66903 18.1388 9.134 18.4368C9.76278 18.8195 10.437 19.1219 11.141 19.3368C12.7647 19.872 14.5174 19.872 16.141 19.3368C16.8457 19.1219 17.5206 18.8196 18.1501 18.4368C18.626 18.1367 19.035 17.8688 19.4001 17.6308C19.579 17.5138 19.69 17.4508 19.752 17.4178C20.2309 17.4251 20.7047 17.5165 21.152 17.6878C21.5746 17.8482 21.9621 18.089 22.293 18.3968C22.6395 18.7356 22.9349 19.123 23.17 19.5468C23.4345 20.0099 23.6503 20.4992 23.8141 21.0068C23.9892 21.5637 24.1275 22.1316 24.2281 22.7068C24.3327 23.2774 24.4068 23.8532 24.45 24.4318C24.488 24.9678 24.507 25.5318 24.507 26.0977C24.567 27.0342 24.2239 27.9516 23.564 28.6187L23.568 28.6178Z" fill="white"/>
<path d="M26.226 24.3068L25.877 24.3327L25.9055 24.7157L26.2842 24.6519L26.226 24.3068ZM25.98 22.3917L25.6353 22.4524L25.6357 22.4549L25.98 22.3917ZM25.509 20.4658L25.8428 20.3605L25.8422 20.3587L25.509 20.4658ZM24.717 18.6658L24.4113 18.8363L24.4129 18.8391L24.717 18.6658ZM23.524 17.1098L23.768 16.8588L23.7637 16.8547L23.524 17.1098ZM21.809 16.0328L21.6826 16.3592L21.6834 16.3595L21.809 16.0328ZM19.62 15.6328L19.6172 15.2828L19.6003 15.2829L19.5835 15.2847L19.62 15.6328ZM18.433 16.1328L18.6241 16.426L18.641 16.415L18.6565 16.4021L18.433 16.1328ZM17.1971 16.9328L17.3759 17.2339L17.3871 17.2267L17.1971 16.9328ZM15.597 17.6328L15.4973 17.2971L15.4868 17.3006L15.597 17.6328ZM11.685 17.6328L11.7953 17.3004L11.7846 17.2972L11.685 17.6328ZM10.0851 16.9328L9.89647 17.2279L9.90617 17.2336L10.0851 16.9328ZM8.84805 16.1328L8.62445 16.402L8.63928 16.4144L8.65537 16.425L8.84805 16.1328ZM7.66202 15.6328L7.69866 15.2847L7.68185 15.2829L7.66496 15.2828L7.66202 15.6328ZM5.47305 16.0328L5.59862 16.3595L5.59958 16.3591L5.47305 16.0328ZM3.75802 17.1098L3.51828 16.8547L3.51407 16.8588L3.75802 17.1098ZM2.56503 18.6648L2.86915 18.838L2.87063 18.8354L2.56503 18.6648ZM1.77304 20.4647L1.43984 20.3576L1.43925 20.3595L1.77304 20.4647ZM1.30203 22.3898L1.64628 22.453L1.64672 22.4505L1.30203 22.3898ZM1.05606 24.3057L0.707005 24.28L0.706893 24.2816L1.05606 24.3057ZM0.995024 26.0958L1.34468 26.1113L1.34502 26.1036V26.0958H0.995024ZM2.49002 29.9038L2.24414 30.1532L2.25418 30.1624L2.49002 29.9038ZM6.34201 31.3038V30.9538H6.33463L6.32726 30.9541L6.34201 31.3038ZM20.941 31.3038L20.9557 30.9541L20.9484 30.9538H20.941V31.3038ZM24.793 29.9038L25.029 30.1626L25.0383 30.1534L24.793 29.9038ZM26.293 26.0958H25.943V26.1034L25.9433 26.1111L26.293 26.0958ZM26.232 24.3058L26.5812 24.2816L26.5545 23.8966L26.1739 23.9606L26.232 24.3058ZM23.568 28.6178L23.8013 28.8787L23.4855 28.2776L23.568 28.6178ZM20.941 29.5338L20.9615 29.1844L20.9513 29.1838H20.941V29.5338ZM6.34701 29.5338V29.1838H6.33671L6.32643 29.1844L6.34701 29.5338ZM3.72 28.6187L3.47112 28.8648L3.47873 28.8725L3.4868 28.8797L3.72 28.6187ZM2.77701 26.0977L3.12629 26.1201L3.12701 26.1089V26.0977H2.77701ZM2.83304 24.4308L2.48399 24.4048L2.48386 24.4067L2.83304 24.4308ZM3.05502 22.7058L3.39926 22.7691L3.39978 22.7661L3.05502 22.7058ZM3.46902 21.0058L3.13596 20.8982L3.13512 20.9008L3.46902 21.0058ZM4.113 19.5457L4.41703 19.7192L4.41898 19.7157L4.113 19.5457ZM4.99002 18.3957L4.75149 18.1395L4.74519 18.1456L4.99002 18.3957ZM6.13101 17.6868L6.25511 18.014L6.25619 18.0136L6.13101 17.6868ZM7.53103 17.4168L7.69542 17.1078L7.61584 17.0654L7.5257 17.0668L7.53103 17.4168ZM7.88302 17.6298L8.07422 17.3365L8.06986 17.3338L7.88302 17.6298ZM9.134 18.4368L8.94509 18.7315L8.95202 18.7357L9.134 18.4368ZM11.141 19.3368L11.2506 19.0043L11.2432 19.002L11.141 19.3368ZM16.141 19.3368L16.0389 19.0019L16.0314 19.0044L16.141 19.3368ZM18.1501 18.4368L18.3319 18.7358L18.3367 18.7328L18.1501 18.4368ZM19.4001 17.6308L19.5912 17.924L19.5916 17.9237L19.4001 17.6308ZM19.752 17.4178L19.7574 17.0678L19.6672 17.0664L19.5875 17.1088L19.752 17.4178ZM21.152 17.6878L21.0268 18.0146L21.0278 18.015L21.152 17.6878ZM22.293 18.3968L22.5378 18.1464L22.5314 18.1405L22.293 18.3968ZM23.17 19.5468L22.8639 19.7166L22.8661 19.7203L23.17 19.5468ZM23.8141 21.0068L24.1479 20.9018L24.1472 20.8993L23.8141 21.0068ZM24.2281 22.7068L23.8833 22.7671L23.8838 22.7699L24.2281 22.7068ZM24.507 26.0977H24.157V26.1089L24.1578 26.1201L24.507 26.0977ZM23.564 28.6187L23.3152 28.3726L22.4476 29.2497L23.6465 28.9589L23.564 28.6187ZM26.5751 24.2808C26.5264 23.6261 26.4427 22.9744 26.3243 22.3286L25.6357 22.4549C25.7496 23.0761 25.8302 23.7029 25.877 24.3327L26.5751 24.2808ZM26.3247 22.3311C26.2075 21.6644 26.0465 21.0061 25.8428 20.3605L25.1752 20.5711C25.3697 21.1874 25.5234 21.8159 25.6353 22.4524L26.3247 22.3311ZM25.8422 20.3587C25.6338 19.7099 25.3586 19.0845 25.0211 18.4924L24.4129 18.8391C24.7265 19.3891 24.9821 19.9701 25.1758 20.5728L25.8422 20.3587ZM25.0227 18.4953C24.6861 17.8918 24.2634 17.3405 23.768 16.8588L23.28 17.3607C23.7267 17.795 24.1078 18.2921 24.4113 18.8363L25.0227 18.4953ZM23.7637 16.8547C23.2342 16.3571 22.613 15.967 21.9347 15.7061L21.6834 16.3595C22.2771 16.5878 22.8208 16.9292 23.2843 17.3648L23.7637 16.8547ZM21.9355 15.7064C21.1964 15.4201 20.4097 15.2763 19.6172 15.2828L19.6229 15.9828C20.327 15.977 21.0259 16.1047 21.6826 16.3592L21.9355 15.7064ZM19.5835 15.2847C19.0784 15.3377 18.6003 15.5391 18.2095 15.8634L18.6565 16.4021C18.941 16.1661 19.289 16.0195 19.6566 15.9809L19.5835 15.2847ZM18.2419 15.8396C17.8867 16.0711 17.4718 16.3384 17.007 16.6389L17.3871 17.2267C17.8503 16.9272 18.2675 16.6585 18.6241 16.426L18.2419 15.8396ZM17.0183 16.6319C16.5407 16.9156 16.0298 17.1391 15.4973 17.2973L15.6967 17.9683C16.2846 17.7936 16.8485 17.5469 17.3758 17.2337L17.0183 16.6319ZM15.4868 17.3006C14.2884 17.6983 12.9937 17.6983 11.7953 17.3006L11.5748 17.965C12.9163 18.4102 14.3657 18.4102 15.7073 17.965L15.4868 17.3006ZM11.7846 17.2972C11.2521 17.1393 10.7413 16.9158 10.2639 16.632L9.90617 17.2336C10.4333 17.5471 10.9975 17.7939 11.5855 17.9683L11.7846 17.2972ZM10.2735 16.6379C9.81391 16.3441 9.39957 16.0772 9.04073 15.8406L8.65537 16.425C9.01845 16.6644 9.43615 16.9334 9.89657 17.2277L10.2735 16.6379ZM9.07166 15.8635C8.68121 15.5393 8.20344 15.3378 7.69866 15.2847L7.62538 15.9809C7.99266 16.0195 8.34033 16.1661 8.62445 16.402L9.07166 15.8635ZM7.66496 15.2828C6.87227 15.2761 6.0856 15.4199 5.34652 15.7065L5.59958 16.3591C6.25613 16.1046 6.95493 15.9769 7.65908 15.9828L7.66496 15.2828ZM5.34748 15.7061C4.66909 15.9669 4.04787 16.357 3.51831 16.8547L3.99774 17.3648C4.46122 16.9291 5.00492 16.5877 5.59862 16.3595L5.34748 15.7061ZM3.51407 16.8588C3.01881 17.3402 2.59612 17.8911 2.25943 18.4941L2.87063 18.8354C3.17421 18.2916 3.55535 17.7949 4.00197 17.3607L3.51407 16.8588ZM2.26092 18.4915C1.92359 19.0836 1.64847 19.7089 1.43985 20.3576L2.10623 20.5719C2.30008 19.9692 2.55571 19.3881 2.86914 18.838L2.26092 18.4915ZM1.43925 20.3595C1.23573 21.0048 1.07474 21.6627 0.957339 22.3291L1.64672 22.4505C1.75881 21.8143 1.91252 21.1861 2.10683 20.57L1.43925 20.3595ZM0.957788 22.3266C0.839123 22.9727 0.755362 23.6248 0.707008 24.28L1.40511 24.3315C1.45161 23.7015 1.53215 23.0744 1.64627 22.453L0.957788 22.3266ZM0.706893 24.2816C0.66629 24.8688 0.645024 25.4788 0.645024 26.0958H1.34502C1.34502 25.4947 1.36575 24.9008 1.40523 24.3299L0.706893 24.2816ZM0.645369 26.0802C0.577674 27.603 1.15873 29.083 2.24433 30.153L2.73571 29.6545C1.79128 28.7236 1.28579 27.436 1.34468 26.1113L0.645369 26.0802ZM2.25418 30.1624C3.37143 31.1812 4.84609 31.7172 6.35676 31.6535L6.32726 30.9541C5.00114 31.01 3.70663 30.5395 2.72585 29.6452L2.25418 30.1624ZM6.34201 31.6538H20.941V30.9538H6.34201V31.6538ZM20.9263 31.6535C22.437 31.7171 23.9116 31.1812 25.0288 30.1624L24.5572 29.6451C23.5764 30.5395 22.2819 31.0099 20.9557 30.9541L20.9263 31.6535ZM25.0383 30.1534C26.1262 29.0844 26.7093 27.6041 26.6427 26.0805L25.9433 26.1111C26.0013 27.4365 25.494 28.7242 24.5477 29.6541L25.0383 30.1534ZM26.643 26.0958C26.643 25.4769 26.6217 24.8668 26.5812 24.2816L25.8829 24.33C25.9223 24.8988 25.943 25.4927 25.943 26.0958H26.643ZM26.1739 23.9606L26.1679 23.9616L26.2842 24.6519L26.2901 24.6509L26.1739 23.9606ZM23.3347 28.3568C22.6853 28.9375 21.8312 29.2354 20.9615 29.1844L20.9205 29.8832C21.9762 29.9451 23.013 29.5835 23.8013 28.8787L23.3347 28.3568ZM20.941 29.1838H6.34701V29.8838H20.941V29.1838ZM6.32643 29.1844C5.45689 29.2356 4.60279 28.9381 3.95319 28.3577L3.4868 28.8797C4.27532 29.5843 5.31209 29.9454 6.3676 29.8832L6.32643 29.1844ZM3.96888 28.3727C3.3794 27.7765 3.07279 26.9568 3.12629 26.1201L2.42772 26.0754C2.36147 27.1115 2.74114 28.1265 3.47112 28.8648L3.96888 28.3727ZM3.12701 26.0977C3.12701 25.5375 3.14579 24.9845 3.18221 24.4548L2.48386 24.4067C2.4463 24.9531 2.42701 25.522 2.42701 26.0977H3.12701ZM3.18208 24.4567C3.22411 23.8907 3.2966 23.3273 3.39925 22.7691L2.71079 22.6425C2.6036 23.2255 2.5279 23.8137 2.484 24.4048L3.18208 24.4567ZM3.39978 22.7661C3.49779 22.2061 3.63246 21.6531 3.80292 21.1107L3.13512 20.9008C2.95548 21.4724 2.81355 22.0552 2.71026 22.6454L3.39978 22.7661ZM3.80208 21.1133C3.95863 20.6287 4.16466 20.1615 4.41701 19.7192L3.809 19.3723C3.53278 19.8565 3.3073 20.3678 3.13597 20.8982L3.80208 21.1133ZM4.41898 19.7157C4.63787 19.3216 4.91268 18.9612 5.23485 18.6459L4.74519 18.1456C4.37473 18.5083 4.05873 18.9226 3.80703 19.3758L4.41898 19.7157ZM5.22847 18.6519C5.52618 18.3749 5.87486 18.1582 6.2551 18.014L6.00692 17.3595C5.54195 17.5358 5.1156 17.8007 4.75156 18.1395L5.22847 18.6519ZM6.25619 18.0136C6.66518 17.857 7.09849 17.7734 7.53637 17.7667L7.5257 17.0668C7.00582 17.0747 6.49137 17.174 6.00583 17.3599L6.25619 18.0136ZM7.36665 17.7258C7.41542 17.7517 7.51572 17.8118 7.69619 17.9257L8.06986 17.3338C7.89229 17.2217 7.77067 17.1478 7.69542 17.1078L7.36665 17.7258ZM7.69185 17.9229C8.05801 18.1617 8.47996 18.4333 8.94514 18.7314L9.32286 18.1421C8.85811 17.8442 8.43801 17.5738 8.0742 17.3366L7.69185 17.9229ZM8.95202 18.7357C9.60579 19.1337 10.3069 19.4481 11.0388 19.6715L11.2432 19.002C10.5672 18.7957 9.91978 18.5053 9.31599 18.1378L8.95202 18.7357ZM11.0314 19.6692C12.7263 20.2279 14.5558 20.2279 16.2506 19.6692L16.0314 19.0044C14.479 19.5162 12.8032 19.5162 11.2506 19.0044L11.0314 19.6692ZM16.2431 19.6715C16.9757 19.4482 17.6775 19.1338 18.3319 18.7358L17.9682 18.1377C17.3637 18.5053 16.7156 18.7957 16.039 19.002L16.2431 19.6715ZM18.3367 18.7328C18.8154 18.4311 19.2269 18.1615 19.5912 17.924L19.2089 17.3376C18.8431 17.5761 18.4366 17.8424 17.9634 18.1407L18.3367 18.7328ZM19.5916 17.9237C19.7631 17.8115 19.8651 17.7541 19.9165 17.7267L19.5875 17.1088C19.515 17.1475 19.3949 17.216 19.2085 17.3378L19.5916 17.9237ZM19.7466 17.7677C20.1846 17.7745 20.6179 17.858 21.0268 18.0146L21.2772 17.3609C20.7916 17.175 20.2773 17.0758 19.7574 17.0678L19.7466 17.7677ZM21.0278 18.015C21.4081 18.1594 21.7568 18.3761 22.0546 18.653L22.5314 18.1405C22.1673 17.8019 21.741 17.5371 21.2763 17.3606L21.0278 18.015ZM22.0483 18.647C22.3705 18.9621 22.6453 19.3224 22.864 19.7166L23.4761 19.377C23.2245 18.9236 22.9084 18.5091 22.5377 18.1465L22.0483 18.647ZM22.8661 19.7203C23.1186 20.1625 23.3246 20.6296 23.481 21.1143L24.1472 20.8993C23.976 20.3688 23.7504 19.8573 23.4739 19.3732L22.8661 19.7203ZM23.4802 21.1118C23.6507 21.6541 23.7853 22.2071 23.8833 22.7671L24.5728 22.6465C24.4696 22.0562 24.3277 21.4734 24.1479 20.9018L23.4802 21.1118ZM23.8838 22.7699C23.9862 23.3283 24.0587 23.8918 24.101 24.4579L24.7991 24.4057C24.7549 23.8147 24.6792 23.2265 24.5723 22.6436L23.8838 22.7699ZM24.1009 24.4565C24.1383 24.9837 24.157 25.5394 24.157 26.0977H24.857C24.857 25.5241 24.8378 24.9519 24.7992 24.4071L24.1009 24.4565ZM24.1578 26.1201C24.2114 26.9569 23.9048 27.7766 23.3152 28.3726L23.8128 28.8649C24.543 28.1267 24.9227 27.1115 24.8563 26.0754L24.1578 26.1201ZM23.6465 28.9589L23.6505 28.9579L23.4855 28.2776L23.4815 28.2786L23.6465 28.9589Z" fill="white"/>
</g>
</svg>
